<?xml version="1.0" encoding="UTF-8" standalone="no"?>
<!-- Created with Inkscape (http://www.inkscape.org/) -->

<svg
   xmlns:dc="http://purl.org/dc/elements/1.1/"
   xmlns:cc="http://creativecommons.org/ns#"
   xmlns:rdf="http://www.w3.org/1999/02/22-rdf-syntax-ns#"
   xmlns:svg="http://www.w3.org/2000/svg"
   xmlns="http://www.w3.org/2000/svg"
   xmlns:sodipodi="http://sodipodi.sourceforge.net/DTD/sodipodi-0.dtd"
   xmlns:inkscape="http://www.inkscape.org/namespaces/inkscape"
   width="135mm"
   height="105mm"
   viewBox="0 0 135 105"
   version="1.1"
   id="svg8"
   inkscape:version="0.92.3 (2405546, 2018-03-11)"
   sodipodi:docname="github.svg">
  <defs
     id="defs2" />
  <sodipodi:namedview
     id="base"
     pagecolor="#ffffff"
     bordercolor="#666666"
     borderopacity="1.0"
     inkscape:pageopacity="0.0"
     inkscape:pageshadow="2"
     inkscape:zoom="1.4"
     inkscape:cx="176.50003"
     inkscape:cy="106.06991"
     inkscape:document-units="mm"
     inkscape:current-layer="layer1"
     showgrid="false"
     inkscape:pagecheckerboard="true"
     inkscape:window-width="1920"
     inkscape:window-height="1017"
     inkscape:window-x="-8"
     inkscape:window-y="-8"
     inkscape:window-maximized="1" />
  <metadata
     id="metadata5">
    <rdf:RDF>
      <cc:Work
         rdf:about="">
        <dc:format>image/svg+xml</dc:format>
        <dc:type
           rdf:resource="http://purl.org/dc/dcmitype/StillImage" />
        <dc:title></dc:title>
      </cc:Work>
    </rdf:RDF>
  </metadata>
  <g
     inkscape:label="Layer 1"
     inkscape:groupmode="layer"
     id="layer1"
     transform="translate(0,-192)">
    <path
       id="path826"
       transform="matrix(0.26458333,0,0,0.26458333,0,192)"
       style="opacity:1;fill:#000000;fill-opacity:1;stroke:#000000;stroke-width:0;stroke-miterlimit:4;stroke-dasharray:none;stroke-opacity:1"
       d="M 130.14453,6.1210938 V 6.125 c -2.17413,0.071811 -2.30469,0.5787343 -2.30469,1.8691406 0,1.1798173 -1.15428,6.1302304 -2.5664,11.0000004 -4.36779,15.063042 -4.35489,34.271011 0.0312,46.703125 1.2936,3.666482 1.24788,3.789256 -3.69531,10.15039 -13.12372,16.88829 -18.65568,32.388104 -19.70313,55.205074 -0.71752,15.63054 0.8217,31.92025 4.32227,45.76954 1.33087,5.26522 2.41796,9.63411 2.41796,9.70898 0,0.0748 -13.522158,0.39087 -30.050777,0.70117 -29.509954,0.55366 -45.270656,1.86388 -67.054687,5.57617 -5.5326962,0.94284 -9.9254516,2.16902 -9.7617191,2.72461 0.1637325,0.55544 0.6111887,0.90509 0.9941406,0.77735 0.3829527,-0.12775 8.5640825,-1.35671 18.1816405,-2.73243 22.413616,-3.20605 43.321012,-4.61132 68.628906,-4.61132 h 20.171876 l 1.92187,4.28906 c 2.42362,5.4133 2.67449,5.30818 -14.64648,6.16602 -15.583294,0.77174 -35.779349,3.00505 -52.529297,5.80859 -11.28057,1.88814 -41.8990719,8.76213 -42.845703,9.61914 -1.85869618,1.68272 2.985857,1.06537 15.816406,-2.01563 25.833248,-6.20333 54.892001,-10.20682 82.736324,-11.39843 l 15.29883,-0.6543 1.63672,3.16406 c 0.89978,1.7401 3.67434,5.6655 6.16602,8.72461 2.49167,3.05908 4.52929,5.9529 4.52929,6.42969 0,1.49767 18.32249,13.91518 26.76954,18.14258 12.96552,6.48873 30.23185,11.64047 47.98242,14.31445 13.28476,2.00122 12.68872,1.44822 7.15429,6.625 -5.15746,4.82423 -10.2841,13.41549 -12.11328,20.29688 -1.01586,3.82174 -1.56809,4.331 -6.90429,6.37304 -8.66388,3.31544 -19.8023,4.63027 -27.59375,3.25782 -13.10861,-2.30903 -21.12169,-8.31863 -31.33204,-23.5 -8.61719,-12.81257 -16.7451,-18.94694 -27.84961,-21.02149 -4.632513,-0.86544 -10.946914,0.0151 -12.701167,1.76758 -1.954579,1.95458 0.523895,5.43947 7.632813,10.73047 3.980714,2.96273 8.452754,6.68748 9.937504,8.27734 2.95723,3.16653 11.94726,17.38296 11.94726,18.89258 -1e-5,0.51832 1.83458,4.71802 4.07813,9.33203 7.67124,15.77635 21.08534,24.07075 42.45117,26.25195 5.96614,0.60907 21.91885,-0.77938 25.7207,-2.23828 1.2887,-0.49455 1.48841,2.56874 1.48047,22.51758 -0.009,22.09746 -0.11153,23.30828 -2.38086,28.18164 -2.38241,5.1162 -5.83725,8.63016 -11.53516,11.73047 -4.57045,2.48685 -5.79886,5.37106 -3.33593,7.83398 1.53104,1.53105 12.18563,0.93544 13.65625,1.53907 h 0.0566 c 0.12635,-3.1e-4 0.25254,-4e-5 0.3789,0 h 0.45899 0.34179 l 0.0977,-0.0273 c 0.0204,-0.0151 0.0434,-0.0296 0.0586,-0.0371 0.0456,-0.0151 0.096,-0.0194 0.14648,-0.0156 l 3.86914,-0.99024 c 9.98174,-2.5545 16.61467,-7.35408 20.76172,-15.02539 2.08905,-3.86434 2.2064,-5.58324 2.68945,-39.39648 0.48811,-34.16735 0.58115,-35.4974 2.76367,-39.58008 1.24212,-2.32354 2.74238,-4.52319 3.33399,-4.88867 0.75583,-0.46734 0.97912,12.03367 0.75,42.10352 -0.36499,47.90207 -0.53585,49.18089 -7.7168,57.57031 -2.56873,3.0009 -3.29372,4.36369 -3.38086,7.0625 0.003,-1.2e-4 0.005,7e-5 0.008,0 0,0.0151 0,0.0282 0,0.043 0,0.10129 -4e-5,0.20144 0,0.30273 -9e-5,0.0378 0,0.0572 0,0.0859 v 0.0566 0.0469 c 0.0197,-6.8e-4 0.0211,0.0429 0.0332,0.0625 0.004,0.008 0.0115,0.0119 0.0176,0.0156 0.0944,0.17348 0.0463,0.0829 0.0898,0.25 0.003,0.002 0.0103,0.008 0.0137,0.0117 0.0344,0.0227 0.067,0.048 0.12695,0.11719 0.008,0.0113 -0.0301,-0.0276 -0.0195,-0.0352 0.005,-0.003 0.0743,0.0554 0.11524,0.0879 0.15091,0.12699 0.0786,0.0681 0.17968,0.15234 -0.014,-0.0189 0.003,0.002 -0.0137,-0.0215 -0.0125,-0.0151 0.0589,0.06 0.043,0.0449 -0.0287,-0.0227 -0.013,-0.0121 -0.0293,-0.0234 0.0178,0.0227 0.008,0.008 0.0215,0.0273 0.0787,0.0302 0.14504,0.071 0.18359,0.11523 0.13814,0.0507 0.19373,0.0367 0.35742,0.0254 0.15296,-0.008 0.2593,0.007 0.37696,0.043 3.57345,-0.0926 13.80149,0.16328 15.4414,-0.42969 5.54849,-2.00636 13.97578,-11.06835 16.70508,-17.96289 2.25445,-5.69495 2.35364,-7.25481 3.01758,-47.30469 0.37761,-22.77894 0.73931,-42.43937 0.80274,-43.68945 0.0922,-1.81572 0.71227,-2.27344 3.08593,-2.27344 h 2.97071 l 0.32421,43.1836 c 0.31835,42.37723 0.36828,43.29369 2.65625,48.99023 2.82177,7.02565 10.63772,15.87037 16.26563,18.40821 2.25869,1.01869 19.28516,0.33863 19.28516,0.67187 0.0973,-1.55883 -1.32514,-4.50207 -3.53907,-7.34375 -1.98855,-2.55235 -4.6174,-7.31589 -5.84179,-10.58594 -2.13973,-5.71472 -2.23785,-7.57072 -2.56641,-47.79687 -0.32349,-39.60363 -0.24806,-41.7738 1.4082,-40.40625 0.96263,0.79487 2.6996,3.49011 3.85938,5.99023 1.98938,4.28852 2.11761,6.41286 2.2832,37.56055 0.16626,31.25847 0.28992,33.27467 2.32227,37.86914 3.74606,8.46864 10.16998,13.38244 20.58593,15.74805 l 18.2168,-0.13282 c 2.81423,-3.10968 2.49054,-3.60184 -7.1875,-10.96289 -1.62546,-1.23639 -4.28459,-4.64567 -5.9082,-7.57617 l -2.95117,-5.32812 -0.56446,-39.39649 c -0.53082,-37.09092 -0.69435,-39.7908 -2.79492,-46.13867 -2.62141,-7.92155 -7.84402,-16.2088 -13.05273,-20.71094 -4.33432,-3.74634 -5.50576,-3.1712 11.86718,-5.81445 12.14122,-1.84728 28.30271,-6.33099 39.2461,-10.88672 16.23261,-6.75764 33.33577,-21.10427 39.48242,-33.12109 l 3.35742,-6.56641 8.70703,0.28711 c 12.4777,0.41121 39.86402,3.02676 55.17383,5.26953 14.14719,2.07243 41.2962,7.50882 45.52149,9.11524 3.25613,1.23809 5.49023,1.26142 5.49023,0.0586 0,-0.50963 -5.81141,-2.3071 -12.91602,-3.99609 -25.30144,-6.0149 -55.88964,-10.3836 -84.8457,-12.11719 -7.93292,-0.47494 -14.66835,-1.10969 -14.96875,-1.41016 -0.30047,-0.30047 0.0113,-2.40913 0.69336,-4.68554 l 1.24023,-4.13868 21.30665,0.0137 c 31.15566,0.0227 57.97587,2.10135 82.67187,6.4082 6.87296,1.19868 9.66121,0.88866 6.96875,-0.77539 -1.72675,-1.06715 -36.41553,-5.57482 -50.84766,-6.60742 -8.16011,-0.58387 -24.89438,-1.06055 -37.18945,-1.06055 -21.28044,0 -22.32758,-0.0907 -21.76367,-1.86719 3.15175,-9.93025 6.18254,-44.49734 5.01758,-57.22656 -2.04027,-22.29434 -9.30021,-40.376425 -22.42383,-55.847657 l -5.38477,-6.349609 1.70899,-10.21875 c 2.08282,-12.45634 1.48968,-22.645591 -2.09375,-35.984375 -3.83085,-14.2597042 -3.26958,-13.6939937 -12.9961,-13.0488284 -9.57219,0.6349229 -22.25173,4.6593434 -32.64062,10.3613284 -3.79529,2.083049 -9.77525,5.287935 -13.29102,7.123047 -3.51577,1.835111 -6.92505,3.773689 -7.57617,4.30664 -0.77175,0.63171 -4.17407,0.295579 -9.77148,-0.96289 -11.40534,-2.564599 -40.07958,-4.186684 -60.10352,-3.400391 -16.1579,0.634469 -29.13517,2.29018 -40.25,5.134766 -5.44303,1.393171 -6.11467,1.374289 -8.58594,-0.25 -6.43633,-4.230917 -29.71627,-15.580979 -38.0371,-18.544922 -6.51263,-2.3198743 -11.59797,-3.393055 -17.92969,-3.7812502 -3.19012,-0.1954016 -5.23075,-0.3087117 -6.53516,-0.265625 z M 311.04688,122.50195 c 1.1384,-0.008 2.24393,-0.008 3.3164,0.002 18.5904,0.19162 27.56686,3.51955 36.5918,12.23242 7.29933,7.04693 12.88744,15.81516 15.44531,24.23633 1.8287,6.02063 2.04673,8.75052 1.62695,20.24414 -0.40045,10.96395 -0.96533,14.69817 -3.23437,21.36718 -1.51224,4.44469 -3.71082,9.67266 -4.88672,11.61719 -3.05954,5.05943 -8.89839,12.1211 -10.02148,12.1211 -0.52574,0 -2.43574,1.12847 -4.24415,2.50781 -10.26109,7.82653 -28.1186,12.78272 -52.64062,14.61133 -12.81106,0.95531 -51.84483,1.19343 -63.13477,0.38476 -25.46342,-1.82381 -42.21186,-5.59398 -57.04296,-12.84179 -8.99214,-4.39435 -12.27021,-6.62957 -16.98633,-11.58204 -10.29807,-10.81409 -15.20843,-24.70733 -15.22656,-43.08203 -0.009,-9.2541 0.38414,-12.12612 2.34765,-17.17383 3.10064,-7.97121 7.66365,-15.03024 13.76563,-21.29492 11.46251,-11.76809 21.62069,-14.24716 52.93945,-12.91601 25.097,1.06673 67.05991,1.02429 90.17578,-0.0918 4.07461,-0.19654 7.79374,-0.31421 11.20899,-0.3418 z M 105.19922,245.78711 c 2.4789,-0.11717 4.49836,1.49884 3.78516,3.35742 -0.55795,1.45395 -5.48635,2.01565 -6.73438,0.76758 -1.44999,-1.44998 -0.55199,-3.35819 1.86523,-3.96484 0.36624,-0.0918 0.72986,-0.14315 1.08399,-0.16016 z m 11.43945,6.24219 c 0.60202,-0.0151 1.27954,0.0678 2.01367,0.25976 2.48159,0.64895 2.83312,3.86805 0.51954,4.75586 -2.98591,1.1458 -5.47266,0.0571 -5.47266,-2.39453 0,-1.62637 1.13337,-2.5729 2.93945,-2.62109 z m 7.17774,8.78711 c 0.19358,0.008 0.39223,0.0188 0.59765,0.043 2.13627,0.24377 2.92188,0.8759 2.92188,2.35351 0,2.43443 -4.61124,3.36446 -6.3418,1.2793 -1.59871,-1.92631 -0.0818,-3.76283 2.82227,-3.67578 z m 5.29882,9.02539 c 0.88731,-0.034 1.98528,0.38706 3.18946,1.26758 1.70573,1.24728 1.71353,1.43882 0.12109,3.03124 -0.93461,0.93468 -2.0658,1.69922 -2.51367,1.69922 -1.514,0 -3.31104,-2.99482 -2.7207,-4.5332 0.36102,-0.94076 1.03652,-1.43068 1.92382,-1.46484 z m 7.27539,9.35937 c 2.25032,0.0949 4.5335,1.64939 3.96876,3.1211 -0.70766,1.84403 -3.7284,2.58014 -5.8086,1.41601 -2.26156,-1.26569 -2.09038,-3.58388 0.32227,-4.34961 0.48031,-0.15231 0.99826,-0.20942 1.51757,-0.1875 z m 9.96485,7.82617 c 1.6859,0.0265 3.20312,0.94966 3.20312,2.44922 0,1.4211 -0.77411,2.11068 -2.61132,2.32422 -3.36731,0.39145 -5.62365,-2.03532 -3.51758,-3.7832 0.8425,-0.69921 1.91424,-1.00607 2.92578,-0.99024 z m 40.18555,3.05664 c 0.325,-0.008 0.67113,0.0112 1.03515,0.0645 1.60323,0.22677 2.38867,1.00377 2.38867,2.35937 0,2.6394 -5.24792,3.49386 -6.20117,1.00977 -0.7486,-1.95081 0.50225,-3.38231 2.77735,-3.4336 z m -26.94532,1.91797 c 3.06094,0 5.00697,2.22939 3.37305,3.86328 -1.6617,1.66182 -5.78459,1.48329 -6.46094,-0.27929 -0.82292,-2.14451 0.41743,-3.58399 3.08789,-3.58399 z m 13.70118,0.0312 c 2.52724,0 4.37217,1.68744 3.71484,3.40039 -0.38209,0.99568 -1.8099,1.61719 -3.71484,1.61719 -1.90493,0 -3.33283,-0.62151 -3.71485,-1.61719 -0.65734,-1.71295 1.18761,-3.40039 3.71485,-3.40039 z m 161.0039,95.05274 c -0.0283,0.0302 -0.166,0.10888 -0.22266,0.15234 0.0317,0.0189 0.0529,0.0504 0.082,0.0742 z m -5.99219,3.22461 c -0.0936,0.0465 -0.15858,0.0797 -0.2539,0.12695 0.0429,-0.004 0.0858,-0.01 0.1289,-0.0137 0.054,-0.0113 0.10814,-0.0199 0.16211,-0.0312 -0.0121,-0.0265 -0.025,-0.0544 -0.0371,-0.082 z m 3.2168,1.25 c -0.0352,0.0113 -0.0697,0.0219 -0.10547,0.0332 0.0181,0.008 0.0367,0.012 0.0547,0.0195 0.005,0.002 0.007,0.002 0.0137,0.006 z m -0.16601,0.10351 c 0.0333,-0.002 0.0664,0.003 0.0996,0.004 v -0.004 c -0.0479,-0.004 -0.13264,0.002 -0.0996,0 z m -1.35352,1.39063 c 0.003,0.003 0.007,0.005 0.01,0.008 -0.0181,0.008 -0.0318,0.004 -0.0488,0.0117 0.0546,0.0839 0.12924,0.18191 0.22656,0.29492 0.0938,-0.0578 0.18888,-0.11253 0.28711,-0.16016 -0.19361,-0.0573 -0.39381,-0.12512 -0.47461,-0.15429 z m -32.43359,3.13086 c -0.031,0.49761 0.11565,1.06936 0.40429,1.6875 0.005,-0.002 0.0107,-0.002 0.0156,-0.004 -0.11902,-0.47391 -0.41992,-1.65143 -0.41992,-1.68359 z m -81.46485,0.22851 c 0.17908,0.23585 0.0337,0.027 0.0254,0.0156 -0.008,-0.004 -0.0114,-0.008 -0.0254,-0.0156 z m 0.20508,0.13672 v 0.002 c 0.014,0.0151 0.0299,0.0341 0.0449,0.0488 0.002,-1.1e-4 0.008,8e-5 0.01,0 -0.007,-0.0113 -0.007,-0.0197 -0.0137,-0.0234 -0.0121,-0.0113 -0.0276,-0.016 -0.041,-0.0273 z m -3.63672,3.47852 c -0.0113,0.003 -0.0219,0.006 -0.0332,0.01 -0.0555,0.10318 -0.10927,0.18639 -0.16797,0.31641 h 0.0137 c 0.0196,-0.0227 0.0386,-0.0492 0.0625,-0.0723 0.0325,-0.0884 0.0901,-0.16962 0.13867,-0.2539 -0.005,-8e-5 -0.009,1.1e-4 -0.0137,0 z m -20.40625,6.93945 c 0.0385,0.23785 0.0766,0.47226 0.11524,0.70898 0.006,0.003 0.0117,0.005 0.0176,0.008 l -0.0508,-0.68946 c -0.0276,-0.008 -0.0549,-0.0198 -0.082,-0.0273 z m 0.53516,3.1582 c -0.0313,0.11483 -0.0643,0.22908 -0.0957,0.34375 0.0529,0.12506 0.11731,0.20533 0.20118,0.26368 -0.036,-0.20327 -0.0701,-0.4045 -0.10547,-0.60743 z m 6.47851,16.07032 c -0.13791,0.021 -0.27796,0.0435 -0.41406,0.0625 -0.24192,0.0337 -0.45169,0.0522 -0.68945,0.084 0.0939,0.0402 0.19343,0.0765 0.29297,0.11328 0.27999,-0.0619 0.554,-0.12038 0.83984,-0.18359 -0.009,-0.025 -0.0199,-0.0511 -0.0293,-0.0762 z m -5.39062,0.65234 c -0.0265,0.003 -0.0517,0.005 -0.0781,0.008 l 0.0508,0.6875 c 0.0742,-0.0202 0.14839,-0.0404 0.22266,-0.0605 -0.0196,-0.0246 -0.0388,-0.0498 -0.0586,-0.0742 -0.11633,-0.14346 -0.12749,-0.35169 -0.13672,-0.56055 z" />
    <path
       id="path843"
       transform="matrix(0.26458333,0,0,0.26458333,0,185)"
       style="opacity:1;fill:#000000;fill-opacity:1;stroke:#000000;stroke-width:0;stroke-miterlimit:4;stroke-dasharray:none;stroke-opacity:1"
       d="m 192.57227,177.54492 c -2.38096,0 -3.92774,0.14097 -3.92774,0.35742 0,0.19643 -0.48298,0.35743 -1.07226,0.35743 -0.71429,0 -1.07227,0.178 -1.07227,0.53515 0,0.33333 -0.33702,0.53516 -0.89258,0.53516 -0.55555,0 -0.89258,0.20378 -0.89258,0.53711 0,0.29465 -0.24051,0.53515 -0.53515,0.53515 -0.29464,0 -0.53516,0.24052 -0.53516,0.53516 0,0.29465 -0.24247,0.53711 -0.53711,0.53711 -0.29464,0 -0.53515,0.24052 -0.53515,0.53516 0,0.29464 -0.24051,0.53515 -0.53516,0.53515 -0.33333,0 -0.53711,0.33703 -0.53711,0.89258 0,0.55556 -0.20182,0.89258 -0.53516,0.89258 -0.29464,0 -0.53515,0.24247 -0.53515,0.53711 0,0.29465 -0.16099,0.53515 -0.35742,0.53515 -0.19643,0 -0.35743,0.48298 -0.35743,1.07227 0,0.71428 -0.17801,1.07031 -0.53515,1.07031 -0.3869,0 -0.53516,0.39794 -0.53516,1.42969 0,1.03174 -0.1502,1.42773 -0.53711,1.42773 -0.3869,0 -0.53515,0.39599 -0.53515,1.42774 0,1.03175 -0.14825,1.42969 -0.53516,1.42969 -0.45521,0 -0.53711,0.91158 -0.53711,6.07031 0,5.15873 0.0819,6.07226 0.53711,6.07226 0.41126,0 0.53516,0.45692 0.53516,1.96485 0,1.50794 0.1239,1.96289 0.53515,1.96289 0.39683,0 0.53711,0.41695 0.53711,1.60742 0,1.19048 0.13833,1.60742 0.53516,1.60742 0.33333,0 0.53515,0.33703 0.53515,0.89258 0,0.49107 0.161,0.89258 0.35743,0.89258 0.19643,0 0.35742,0.48297 0.35742,1.07226 0,0.71428 0.17801,1.07227 0.53515,1.07227 0.29465,0 0.53516,0.24052 0.53516,0.53516 0,0.29464 0.24247,0.53515 0.53711,0.53515 0.29465,0 0.53516,0.16099 0.53516,0.35742 0,0.19643 0.24051,0.35743 0.53515,0.35743 0.29464,0 0.53711,0.2405 0.53711,0.53515 0,0.29464 0.24052,0.53516 0.53516,0.53516 0.29464,0 0.53515,0.24247 0.53515,0.53711 0,0.33334 0.33703,0.53515 0.89258,0.53515 0.55556,0 0.89258,0.20183 0.89258,0.53516 0,0.35715 0.35798,0.53711 1.07227,0.53711 0.71428,0 1.07226,0.17802 1.07226,0.53516 0,0.44372 0.67377,0.53515 3.92774,0.53515 3.25397,0 3.92773,-0.0914 3.92773,-0.53515 0,-0.35714 0.35798,-0.53516 1.07227,-0.53516 0.71428,0 1.07226,-0.17996 1.07226,-0.53711 0,-0.29464 0.24052,-0.53516 0.53516,-0.53516 0.29464,0 0.53515,-0.2405 0.53515,-0.53515 0,-0.33333 0.33703,-0.53711 0.89258,-0.53711 0.55556,0 0.89258,-0.20183 0.89258,-0.53516 0,-0.29465 0.24247,-0.53515 0.53711,-0.53515 0.33334,0 0.53516,-0.33702 0.53516,-0.89258 0,-0.55555 0.20182,-0.89258 0.53515,-0.89258 0.29464,0 0.53711,-0.24246 0.53711,-0.53711 0,-0.29464 0.24052,-0.53516 0.53516,-0.53516 0.35714,0 0.53515,-0.35797 0.53515,-1.07226 0,-0.58929 0.161,-1.07031 0.35743,-1.07031 0.19643,0 0.35742,-0.4015 0.35742,-0.89258 0,-0.55555 0.20182,-0.89258 0.53515,-0.89258 0.39683,0 0.53516,-0.41694 0.53516,-1.60742 0,-1.19047 0.14029,-1.60742 0.53711,-1.60742 0.42517,0 0.53516,-0.51587 0.53516,-2.5 0,-1.98413 0.10998,-2.5 0.53515,-2.5 0.43862,0 0.53711,-0.6148 0.53711,-3.39258 0,-2.77777 -0.0985,-3.39258 -0.53711,-3.39258 -0.42517,0 -0.53515,-0.51588 -0.53515,-2.5 0,-1.98413 -0.10999,-2.5 -0.53516,-2.5 -0.39682,0 -0.53711,-0.41694 -0.53711,-1.60742 0,-1.19047 -0.13833,-1.60742 -0.53516,-1.60742 -0.33333,0 -0.53515,-0.33702 -0.53515,-0.89258 0,-0.49107 -0.16099,-0.89258 -0.35742,-0.89258 -0.19643,0 -0.35743,-0.48299 -0.35743,-1.07227 0,-0.71429 -0.17801,-1.07226 -0.53515,-1.07226 -0.29464,0 -0.53516,-0.24052 -0.53516,-0.53516 0,-0.29465 -0.24247,-0.53515 -0.53711,-0.53515 -0.29464,0 -0.53515,-0.161 -0.53515,-0.35743 0,-0.19643 -0.24051,-0.35742 -0.53516,-0.35742 -0.29464,0 -0.53711,-0.24051 -0.53711,-0.53515 0,-0.29464 -0.24051,-0.53516 -0.53516,-0.53516 -0.29464,0 -0.53515,-0.24246 -0.53515,-0.53711 0,-0.29464 -0.16099,-0.53516 -0.35742,-0.53516 -0.19643,0 -0.35743,-0.2405 -0.35743,-0.53515 0,-0.29464 -0.24051,-0.53711 -0.53515,-0.53711 -0.29464,0 -0.53516,-0.24052 -0.53516,-0.53516 0,-0.35715 -0.35798,-0.53515 -1.07226,-0.53515 -0.58929,0 -1.07227,-0.161 -1.07227,-0.35743 0,-0.21645 -1.54678,-0.35742 -3.92773,-0.35742 z m 127.5,0 c -2.85715,0 -4.64258,0.13764 -4.64258,0.35742 0,0.19643 -0.40151,0.35743 -0.89258,0.35743 -0.55555,0 -0.89258,0.20181 -0.89258,0.53515 0,0.29464 -0.24247,0.53516 -0.53711,0.53516 -0.29464,0 -0.53515,0.24247 -0.53515,0.53711 0,0.29465 -0.24051,0.53515 -0.53516,0.53515 -0.29464,0 -0.53711,0.24052 -0.53711,0.53516 0,0.29465 -0.24051,0.53711 -0.53516,0.53711 -0.29464,0 -0.53515,0.17235 -0.53515,0.38281 0,0.49446 -0.90984,1.40235 -1.4043,1.40235 -0.21046,0 -0.38086,0.2405 -0.38086,0.53515 0,0.29464 -0.24247,0.53516 -0.53711,0.53516 -0.35714,0 -0.53515,0.35797 -0.53515,1.07226 0,0.71428 -0.17801,1.07227 -0.53516,1.07227 -0.33333,0 -0.53711,0.33703 -0.53711,0.89258 0,0.55556 -0.20182,0.89258 -0.53516,0.89258 -0.39682,0 -0.53515,0.41695 -0.53515,1.60742 0,0.88393 -0.16099,1.60742 -0.35742,1.60742 -0.21009,0 -0.35743,1.24945 -0.35743,3.03516 0,2.46032 -0.10098,3.03515 -0.53515,3.03515 -0.29464,0 -0.53516,0.16099 -0.53516,0.35742 0,0.19643 0.24052,0.35743 0.53516,0.35743 0.44871,0 0.53515,0.75368 0.53515,4.64257 0,2.85714 0.13765,4.64258 0.35743,4.64258 0.19643,0 0.35742,0.64397 0.35742,1.42969 0,1.03174 0.14825,1.42773 0.53515,1.42773 0.38691,0 0.53516,0.39599 0.53516,1.42774 0,1.03175 0.15021,1.42969 0.53711,1.42969 0.35715,0 0.53516,0.35602 0.53516,1.07031 0,0.71429 0.17801,1.07226 0.53515,1.07226 0.29464,0 0.53711,0.24052 0.53711,0.53516 0,0.29465 0.24052,0.53711 0.53516,0.53711 0.29464,0 0.53515,0.17235 0.53515,0.38281 0,0.49446 0.90789,1.40235 1.40235,1.40235 0.21046,0 0.38281,0.2405 0.38281,0.53515 0,0.29464 0.24247,0.53516 0.53711,0.53516 0.29465,0 0.53516,0.24247 0.53516,0.53711 0,0.29465 0.24051,0.53515 0.53515,0.53515 0.29464,0 0.53711,0.24052 0.53711,0.53516 0,0.33333 0.33703,0.53711 0.89258,0.53711 0.55556,0 0.89258,0.20183 0.89258,0.53516 0,0.44512 0.69472,0.53515 4.10742,0.53515 3.4127,0 4.10742,-0.09 4.10742,-0.53515 0,-0.3869 0.39599,-0.53516 1.42774,-0.53516 1.03174,0 1.42773,-0.1502 1.42773,-0.53711 0,-0.29464 0.24247,-0.53516 0.53711,-0.53516 0.29465,0 0.53516,-0.2405 0.53516,-0.53515 0,-0.29464 0.24051,-0.53711 0.53515,-0.53711 0.29464,0 0.53711,-0.24052 0.53711,-0.53516 0,-0.29465 0.1704,-0.53515 0.38086,-0.53515 0.49446,0 1.4043,-0.90789 1.4043,-1.40235 0,-0.21046 0.24051,-0.38281 0.53515,-0.38281 0.35715,0 0.53516,-0.35799 0.53516,-1.07227 0,-0.71429 0.17997,-1.07226 0.53711,-1.07226 0.33334,0 0.53516,-0.33702 0.53516,-0.89258 0,-0.55555 0.20182,-0.89258 0.53515,-0.89258 0.35714,0 0.53711,-0.35603 0.53711,-1.07031 0,-0.71429 0.17802,-1.07227 0.53516,-1.07227 0.38691,0 0.53515,-0.39599 0.53515,-1.42773 0,-0.78572 0.161,-1.42969 0.35743,-1.42969 0.22619,0 0.35742,-2.61877 0.35742,-7.14258 0,-4.52381 -0.13123,-7.14257 -0.35742,-7.14257 -0.19643,0 -0.35743,-0.8845 -0.35743,-1.96485 0,-1.50794 -0.12389,-1.96484 -0.53515,-1.96484 -0.33333,0 -0.53516,-0.33702 -0.53516,-0.89258 0,-0.55555 -0.20377,-0.89258 -0.53711,-0.89258 -0.35714,0 -0.53515,-0.35603 -0.53515,-1.07031 0,-0.71429 -0.17801,-1.07227 -0.53516,-1.07227 -0.35714,0 -0.53711,-0.35797 -0.53711,-1.07226 0,-0.58929 -0.17235,-1.07031 -0.38281,-1.07031 -0.49446,0 -1.40235,-0.90789 -1.40235,-1.40235 0,-0.21046 -0.24051,-0.38281 -0.53515,-0.38281 -0.29464,0 -0.53516,-0.24246 -0.53516,-0.53711 0,-0.29464 -0.24247,-0.53516 -0.53711,-0.53516 -0.29464,0 -0.53515,-0.2405 -0.53515,-0.53515 0,-0.29464 -0.24051,-0.53711 -0.53516,-0.53711 -0.29464,0 -0.53711,-0.24052 -0.53711,-0.53516 0,-0.33334 -0.33702,-0.53515 -0.89258,-0.53515 -0.49107,0 -0.89258,-0.161 -0.89258,-0.35743 0,-0.21978 -1.78543,-0.35742 -4.64257,-0.35742 z M 254,223.25977 c -1.03175,0 -1.42773,0.14824 -1.42773,0.53515 0,0.35714 -0.35799,0.53516 -1.07227,0.53516 -0.71429,0 -1.07031,0.17997 -1.07031,0.53711 0,0.29465 -0.16099,0.53515 -0.35742,0.53515 -0.19643,0 -0.35743,0.24052 -0.35743,0.53516 0,0.29465 -0.24051,0.53711 -0.53515,0.53711 -0.3869,0 -0.53516,0.39598 -0.53516,1.42773 0,1.00724 -0.14688,1.40143 -0.51367,1.41993 0.14602,0.36804 0.11999,0.73196 0.0898,1.11523 0.29597,0.0828 0.42383,0.47847 0.42383,1.39258 0,1.03175 0.14826,1.42969 0.53516,1.42969 0.29464,0 0.53515,0.2405 0.53515,0.53515 0,0.29464 0.161,0.53516 0.35743,0.53516 0.19643,0 0.35742,0.24247 0.35742,0.53711 0,0.39683 0.41695,0.53515 1.60742,0.53515 1.02437,0 1.45445,0.11314 1.56055,0.39454 0.1028,0.0365 0.21083,0.0903 0.33007,0.1875 v 0.002 c 0.21481,0.17522 0.60325,-0.16582 0.88282,-0.12305 0.0638,-0.0444 0.0957,-0.0505 0.48047,-0.0781 0.0596,0.003 0.11836,0.008 0.17773,0.0117 0.0907,-0.25805 0.42395,-0.39454 1.03125,-0.39454 0.71428,0 1.07227,-0.178 1.07227,-0.53515 0,-0.29464 0.24051,-0.53711 0.53515,-0.53711 0.29464,0 0.53711,-0.24052 0.53711,-0.53516 0,-0.29465 0.24052,-0.53515 0.53516,-0.53515 0.33333,0 0.53515,-0.33702 0.53515,-0.89258 0,-0.49107 0.161,-0.89258 0.35743,-0.89258 0.19643,0 0.35742,-0.88448 0.35742,-1.96484 0,-1.08036 -0.16099,-1.96485 -0.35742,-1.96485 -0.19643,0 -0.35743,-0.24051 -0.35743,-0.53515 0,-0.29464 -0.24051,-0.53516 -0.53515,-0.53516 -0.29464,0 -0.53516,-0.24246 -0.53516,-0.53711 0,-0.29464 -0.24247,-0.53516 -0.53711,-0.53516 -0.29464,0 -0.53515,-0.2405 -0.53515,-0.53515 0,-0.35714 -0.35799,-0.53711 -1.07227,-0.53711 -0.71429,0 -1.07031,-0.17802 -1.07031,-0.53516 0,-0.38691 -0.39795,-0.53515 -1.42969,-0.53515 z m 0.66016,12.68164 c -0.0184,0.002 -0.0457,-6.8e-4 -0.0586,0.004 -0.0705,0.0227 -0.25621,0.15253 -0.1875,0.12305 0.19707,-0.0837 0.18023,-0.0887 0.2461,-0.12695 z m -14.23047,6.60351 v 2.5 c 0,1.98412 0.10998,2.5 0.53515,2.5 0.29465,0 0.53516,0.16099 0.53516,0.35742 0,0.19643 0.24247,0.35743 0.53711,0.35743 0.29465,0 0.53516,0.2405 0.53516,0.53515 0,0.29464 0.24051,0.53516 0.53515,0.53516 0.29464,0 0.53711,0.24247 0.53711,0.53711 0,0.29465 0.24052,0.53515 0.53516,0.53515 0.29464,0 0.53515,0.24052 0.53515,0.53516 0,0.29465 0.161,0.53711 0.35743,0.53711 0.19643,0 0.35742,0.24052 0.35742,0.53516 0,0.29464 0.24051,0.53515 0.53515,0.53515 0.29465,0 0.53516,0.16099 0.53516,0.35742 0,0.19643 0.48298,0.35743 1.07227,0.35743 0.71428,0 1.07226,0.178 1.07226,0.53515 0,0.42517 0.51587,0.53516 2.5,0.53516 1.39144,0 2.05239,0.0568 2.32813,0.23633 0.0249,-0.002 0.062,-0.007 0.0488,0.002 -0.005,0.004 -0.019,0.009 -0.0254,0.0137 0.018,0.0132 0.0365,0.0265 0.0508,0.041 0.0779,-0.0389 0.15631,-0.079 0.24023,-0.0977 0.19163,-0.0428 0.39672,0.0144 0.5918,0.0918 0.22051,-0.16837 0.4451,-0.31846 0.61914,-0.34766 0.0685,-0.0115 0.12925,-0.006 0.17968,0.0195 0.14491,0.0733 0.26333,0.18314 0.375,0.30274 0.22634,-0.1961 0.80459,-0.26172 2.01954,-0.26172 1.66666,0 2.14257,-0.1185 2.14257,-0.53516 0,-0.33334 0.33703,-0.53515 0.89258,-0.53515 0.49107,0 0.89258,-0.161 0.89258,-0.35743 0,-0.19643 0.24247,-0.35742 0.53711,-0.35742 0.29465,0 0.53516,-0.24051 0.53516,-0.53515 0,-0.35714 0.35797,-0.53516 1.07226,-0.53516 0.71428,0 1.07031,-0.17996 1.07031,-0.53711 0,-0.29464 0.161,-0.53516 0.35743,-0.53516 0.19643,0 0.35742,-0.2405 0.35742,-0.53515 0,-0.29464 0.24051,-0.53711 0.53515,-0.53711 0.33334,0 0.53516,-0.33702 0.53516,-0.89258 0,-0.55555 0.20378,-0.89258 0.53711,-0.89258 0.35715,0 0.53516,-0.35603 0.53516,-1.07031 0,-0.71429 0.17801,-1.07227 0.53515,-1.07227 0.35714,0 0.53711,-0.35797 0.53711,-1.07226 0,-0.71429 -0.17997,-1.07031 -0.53711,-1.07031 -0.29464,0 -0.53515,-0.161 -0.53515,-0.35743 0,-0.19643 -0.64203,-0.35742 -1.42774,-0.35742 -0.78572,0 -1.42969,0.16099 -1.42969,0.35742 0,0.19643 -0.24051,0.35743 -0.53515,0.35743 -0.35714,0 -0.53516,0.35602 -0.53516,1.07031 0,0.71429 -0.17997,1.07226 -0.53711,1.07226 -0.35714,0 -0.53515,0.35798 -0.53515,1.07227 0,0.71428 -0.17801,1.07031 -0.53516,1.07031 -0.29464,0 -0.53711,0.16099 -0.53711,0.35742 0,0.19643 -0.40151,0.35743 -0.89258,0.35743 -0.55555,0 -0.89258,0.20181 -0.89258,0.53515 0,0.35714 -0.35603,0.53516 -1.07031,0.53516 -0.71429,0 -1.07226,0.17997 -1.07226,0.53711 0,0.44052 -0.63576,0.53515 -3.57227,0.53515 -2.93651,0 -3.57031,-0.0947 -3.57031,-0.53515 0,-0.33333 -0.33702,-0.53711 -0.89258,-0.53711 -0.55555,0 -0.89258,-0.20183 -0.89258,-0.53516 0,-0.29465 -0.24247,-0.53515 -0.53711,-0.53515 -0.29464,0 -0.53515,-0.161 -0.53515,-0.35743 0,-0.19643 -0.24051,-0.35742 -0.53516,-0.35742 -0.29464,0 -0.53711,-0.24051 -0.53711,-0.53515 0,-0.29464 -0.24051,-0.53516 -0.53516,-0.53516 -0.29464,0 -0.53515,-0.24246 -0.53515,-0.53711 0,-0.29464 -0.16099,-0.53516 -0.35742,-0.53516 -0.19643,0 -0.35743,-0.48297 -0.35743,-1.07226 0,-0.71429 -0.17801,-1.07031 -0.53515,-1.07031 -0.29464,0 -0.53516,-0.161 -0.53516,-0.35743 0,-0.19643 -0.72349,-0.35742 -1.60742,-0.35742 z"
       inkscape:connector-curvature="0" />
  </g>
</svg>
