<?xml version="1.0" encoding="UTF-8" standalone="no"?>
              <svg version="1.1" xmlns="http://www.w3.org/2000/svg" xmlns:xlink="http://www.w3.org/1999/xlink" viewBox="0 0 1000 1000" width="100" height="100">
                <path id="tw" d="M112.5,748.5c57.3,5,112.2-2.8,164.8-25.5c25.3-10.9,60.4-32,69.1-41.6c-2-0.2-3.8-0.4-5.5-0.6c-1.6-0.2-3.2-0.5-4.9-0.6 			c-18.1-1.4-35.3-6.1-51.7-13.8c-40-18.9-68-49.1-83.9-90.6c-0.7-1.9-1.2-3.8-2.1-6.3c6.3,0.6,11.9,1.3,17.5,1.7 			c5.9,0.4,11.8,0.8,17.7,0.6c5.7-0.1,11.4-0.8,17-1.6c5.6-0.8,11.2-1.9,17.3-3c-1.5-1.8-3-2-4.4-2.4 			c-49.5-13.3-85.3-43.1-107.2-89.3c-9.4-19.8-14-40.8-14.4-62.7c0-1.7,0.2-3.5,0.3-5.8c6.1,2.8,11.5,5.5,17.1,7.7 c5.7,2.2,11.5,4.2,17.3,5.9c5.7,1.6,11.5,2.9,17.3,3.9c5.9,1,11.9,2.3,18.8,1.7c-2.8-2.9-5.7-4.4-8.1-6.5c-2.7-2.2-5.4-4.4-8-6.7 			c-2.4-2.2-4.8-4.4-7.1-6.8c-2.3-2.3-4.5-4.7-6.7-7.2c-2.3-2.6-4.5-5.3-6.6-8c-2-2.6-3.9-5.2-5.7-7.9c-1.8-2.7-3.6-5.5-5.2-8.3 			c-1.7-3-3.4-6-5-9.1c-1.5-2.9-2.9-5.9-4.2-8.8c-1.3-3-2.5-6-3.6-9.1c-1.2-3.3-2.2-6.6-3.2-9.9c-0.9-3.1-1.7-6.3-2.4-9.5 			c-0.7-3.2-1.4-6.4-1.9-9.6c-0.6-3.4-1-6.9-1.3-10.3c-0.3-3.2-0.4-6.5-0.5-9.8c-0.1-3.3-0.1-6.5,0-9.8c0.1-3.5,0.1-6.9,0.4-10.4 			c0.3-3.3,0.7-6.5,1.2-9.7c0.5-3.2,1.2-6.4,1.9-9.6c0.8-3.4,1.6-6.7,2.5-10.1c0.9-3.1,1.8-6.3,2.9-9.3c1.1-3.1,2.3-6.1,3.5-9.1 			c1.4-3.2,2.8-6.3,4.3-9.4c1.4-2.9,3.1-5.7,4.6-8.5c2.4,0.8,3.4,2.7,4.7,4.3c29.8,35.4,64,65.7,102.9,90.8 			c45.1,29.1,93.8,49.7,146.2,61.5c13.5,3,27.1,5.7,40.9,7.2c10.1,1.1,20.3,2.2,30.4,3.2c2,0.2,4,0.5,6.3-0.3 			c-7.9-39-3.7-76.4,15.1-111.6c15.6-29.2,38.3-51.5,67.7-67c57.9-30.6,137.5-24.2,192.1,32.4c8.8-1.3,17.6-3.6,26.4-6.3 			c8.6-2.6,17.1-5.3,25.5-8.5c8.6-3.3,17-6.9,25.3-10.8c8-3.8,15.8-8.1,23.9-12.2c-1,10.3-13.5,34.3-25.7,49.7 			c-11.6,14.7-25.4,26.9-41,37.5c30.5-3.3,59.5-11.6,87.4-23.6c1.3,1,0.3,1.6,0,2.3c-0.3,0.7-0.9,1.4-1.3,2 			c-13,18.6-27.7,35.8-44.3,51.4c-10.1,9.5-20.8,18.4-32.4,26.8c0,1.4,0,3,0,4.6c0,3.3,0.1,6.5,0.1,9.8 			c0.8,48.8-6.7,96.4-21.3,142.8c-18.6,59.2-47.3,113.2-87.1,161c-60.6,73-136.8,121.8-228.9,145.5c-16.4,4.2-33,7.3-49.7,9.8 			c-30.6,4.6-61.3,5.5-92.2,4.5c-12-0.4-24-1.7-35.9-3.2c-21.5-2.7-42.6-6.9-63.5-12.6c-42.5-11.7-82.5-29.2-120-52.4 			C115,750.4,113.8,749.4,112.5,748.5z"/>
              </svg>
            
       