<?xml version="1.0" encoding="UTF-8" standalone="no"?>
<!-- Created with Inkscape (http://www.inkscape.org/) -->

<svg
   xmlns:dc="http://purl.org/dc/elements/1.1/"
   xmlns:cc="http://creativecommons.org/ns#"
   xmlns:rdf="http://www.w3.org/1999/02/22-rdf-syntax-ns#"
   xmlns:svg="http://www.w3.org/2000/svg"
   xmlns="http://www.w3.org/2000/svg"
   xmlns:sodipodi="http://sodipodi.sourceforge.net/DTD/sodipodi-0.dtd"
   xmlns:inkscape="http://www.inkscape.org/namespaces/inkscape"
   version="1.1"
   id="svg814"
   width="225"
   height="225"
   viewBox="0 0 225 225"
   sodipodi:docname="twitter.svg"
   inkscape:version="0.92.3 (2405546, 2018-03-11)">
  <metadata
     id="metadata820">
    <rdf:RDF>
      <cc:Work
         rdf:about="">
        <dc:format>image/svg+xml</dc:format>
        <dc:type
           rdf:resource="http://purl.org/dc/dcmitype/StillImage" />
        <dc:title></dc:title>
      </cc:Work>
    </rdf:RDF>
  </metadata>
  <defs
     id="defs818" />
  <sodipodi:namedview
     pagecolor="#ffffff"
     bordercolor="#666666"
     borderopacity="1"
     objecttolerance="10"
     gridtolerance="10"
     guidetolerance="10"
     inkscape:pageopacity="0"
     inkscape:pageshadow="2"
     inkscape:window-width="1920"
     inkscape:window-height="1017"
     id="namedview816"
     showgrid="false"
     inkscape:zoom="1.0488889"
     inkscape:cx="112.5"
     inkscape:cy="112.5"
     inkscape:window-x="-8"
     inkscape:window-y="-8"
     inkscape:window-maximized="1"
     inkscape:current-layer="svg814" />
  <path
     style="opacity:1;fill:#000000;fill-opacity:1;stroke:#000000;stroke-width:0;stroke-miterlimit:4;stroke-dasharray:none;stroke-opacity:1"
     d="M 58.937153,202.54899 C 44.113765,201.34073 29.32066,197.28977 15.730932,190.71737 L 4.2902542,185.18431 15.254237,184.45058 c 13.335481,-0.89245 23.127287,-3.32453 34.115894,-8.47368 8.489152,-3.97793 19.250602,-10.44299 19.265598,-11.57402 0.0046,-0.3459 -3.03672,-1.14252 -6.758458,-1.77028 -9.650692,-1.6278 -20.239202,-7.17762 -25.546268,-13.38974 -3.828115,-4.48095 -9.577061,-13.70585 -9.618817,-15.4346 -0.0095,-0.39327 2.932279,-0.71504 6.537284,-0.71504 7.213067,0 12.513242,-0.80401 12.513242,-1.89821 0,-0.38855 -2.542487,-1.63351 -5.649969,-2.76655 -6.6939,-2.44072 -16.151225,-8.55383 -19.630915,-12.6892 -5.048229,-5.99948 -8.989189,-15.58065 -10.372455,-25.217271 l -0.5682774,-3.958944 4.7214974,1.794028 c 4.838592,1.83852 14.93163,3.783449 15.691354,3.023725 0.233227,-0.233226 -2.250894,-2.926324 -5.520268,-5.984663 C 21.164306,82.337797 17.346553,77.735801 15.949786,75.169479 9.5200739,63.355981 8.6692853,46.90176 13.84737,34.508857 l 1.54571,-3.699403 7.963103,8.071303 c 13.81243,14.000107 32.732003,26.140688 49.518487,31.775725 10.311716,3.461529 25.855054,6.961814 32.47491,7.313191 l 5.72034,0.303632 -0.28755,-8.580508 c -0.47895,-14.292051 3.46365,-24.883538 12.85153,-34.524639 6.03023,-6.192895 16.13093,-11.214026 25.50834,-12.680388 12.30941,-1.924843 26.66304,2.081537 36.58454,10.211455 l 4.21423,3.453239 4.83234,-1.23849 c 2.65778,-0.681171 8.50524,-2.680412 12.99433,-4.442758 4.4891,-1.762347 8.30113,-3.204267 8.47115,-3.204267 0.17004,0 0.01,0.965307 -0.35742,2.145127 -1.28037,4.120387 -8.0849,12.7496 -13.00281,16.489588 -4.54436,3.455914 -4.76263,3.792719 -2.62028,4.043327 1.28536,0.150359 6.59676,-0.809705 11.80312,-2.133475 5.20636,-1.323771 9.68371,-2.189255 9.94966,-1.923297 0.26596,0.265958 -4.31555,5.202216 -10.18114,10.969463 l -10.66471,10.485905 v 7.515245 c 0,16.281108 -6.03109,40.585788 -14.22598,57.329218 -8.0078,16.36117 -23.54773,34.99483 -38.78584,46.50742 -9.33557,7.05316 -29.39915,16.8016 -40.42038,19.63936 -16.201133,4.17149 -32.281583,5.56025 -48.795897,4.21416 z"
     id="path1367"
     inkscape:connector-curvature="0" />
</svg>
